<mxfile host="app.diagrams.net" modified="2021-03-01T02:52:41.950Z" agent="5.0 (Macintosh; Intel Mac OS X 10_15_7) AppleWebKit/537.36 (KHTML, like Gecko) Chrome/88.0.4324.192 Safari/537.36" etag="8usNM2Fk2rBvM_le-USE" version="14.4.3" type="github">
  <diagram id="EUV3ePMlZK-PbHkNR1l-" name="测试用例">
    <mxGraphModel dx="715" dy="415" grid="1" gridSize="10" guides="1" tooltips="1" connect="1" arrows="1" fold="1" page="1" pageScale="1" pageWidth="827" pageHeight="1169" math="0" shadow="0">
      <root>
        <mxCell id="0" />
        <mxCell id="1" parent="0" />
        <mxCell id="dA_OjoRXD8D9DYmpGyxw-6" value="" style="rounded=0;whiteSpace=wrap;html=1;dashed=1;" vertex="1" parent="1">
          <mxGeometry x="400" y="60" width="120" height="110" as="geometry" />
        </mxCell>
        <mxCell id="dA_OjoRXD8D9DYmpGyxw-1" value="&lt;h1 style=&quot;font-size: 14px&quot;&gt;&lt;font style=&quot;font-size: 14px&quot;&gt;场景一&lt;/font&gt;&lt;/h1&gt;&lt;p&gt;&lt;font style=&quot;font-size: 11px&quot;&gt;两个版本，单规则&lt;/font&gt;&lt;/p&gt;" style="text;html=1;strokeColor=none;fillColor=none;spacing=5;spacingTop=-20;whiteSpace=wrap;overflow=hidden;rounded=0;" vertex="1" parent="1">
          <mxGeometry x="40" y="30" width="140" height="80" as="geometry" />
        </mxCell>
        <mxCell id="dA_OjoRXD8D9DYmpGyxw-2" value="" style="rounded=0;whiteSpace=wrap;html=1;dashed=1;" vertex="1" parent="1">
          <mxGeometry x="240" y="60" width="120" height="110" as="geometry" />
        </mxCell>
        <mxCell id="dA_OjoRXD8D9DYmpGyxw-3" value="规则1" style="rounded=1;whiteSpace=wrap;html=1;" vertex="1" parent="1">
          <mxGeometry x="270" y="100" width="60" height="40" as="geometry" />
        </mxCell>
        <mxCell id="dA_OjoRXD8D9DYmpGyxw-4" value="规则二" style="rounded=1;whiteSpace=wrap;html=1;" vertex="1" parent="1">
          <mxGeometry x="430" y="100" width="60" height="40" as="geometry" />
        </mxCell>
        <mxCell id="dA_OjoRXD8D9DYmpGyxw-5" value="V1" style="text;html=1;strokeColor=none;fillColor=none;align=center;verticalAlign=middle;whiteSpace=wrap;rounded=0;" vertex="1" parent="1">
          <mxGeometry x="250" y="70" width="40" height="20" as="geometry" />
        </mxCell>
        <mxCell id="dA_OjoRXD8D9DYmpGyxw-7" value="V2" style="text;html=1;strokeColor=none;fillColor=none;align=center;verticalAlign=middle;whiteSpace=wrap;rounded=0;" vertex="1" parent="1">
          <mxGeometry x="410" y="70" width="40" height="20" as="geometry" />
        </mxCell>
        <mxCell id="dA_OjoRXD8D9DYmpGyxw-8" value="" style="rounded=0;whiteSpace=wrap;html=1;dashed=1;" vertex="1" parent="1">
          <mxGeometry x="400" y="280" width="120" height="110" as="geometry" />
        </mxCell>
        <mxCell id="dA_OjoRXD8D9DYmpGyxw-9" value="&lt;h1 style=&quot;font-size: 14px&quot;&gt;&lt;font style=&quot;font-size: 14px&quot;&gt;场景二&lt;/font&gt;&lt;/h1&gt;&lt;p&gt;&lt;font style=&quot;font-size: 11px&quot;&gt;10个版本，单规则&lt;/font&gt;&lt;/p&gt;" style="text;html=1;strokeColor=none;fillColor=none;spacing=5;spacingTop=-20;whiteSpace=wrap;overflow=hidden;rounded=0;" vertex="1" parent="1">
          <mxGeometry x="40" y="250" width="140" height="80" as="geometry" />
        </mxCell>
        <mxCell id="dA_OjoRXD8D9DYmpGyxw-10" value="" style="rounded=0;whiteSpace=wrap;html=1;dashed=1;" vertex="1" parent="1">
          <mxGeometry x="240" y="280" width="120" height="110" as="geometry" />
        </mxCell>
        <mxCell id="dA_OjoRXD8D9DYmpGyxw-11" value="规则1" style="rounded=1;whiteSpace=wrap;html=1;" vertex="1" parent="1">
          <mxGeometry x="270" y="320" width="60" height="40" as="geometry" />
        </mxCell>
        <mxCell id="dA_OjoRXD8D9DYmpGyxw-12" value="规则二" style="rounded=1;whiteSpace=wrap;html=1;" vertex="1" parent="1">
          <mxGeometry x="430" y="320" width="60" height="40" as="geometry" />
        </mxCell>
        <mxCell id="dA_OjoRXD8D9DYmpGyxw-13" value="V1" style="text;html=1;strokeColor=none;fillColor=none;align=center;verticalAlign=middle;whiteSpace=wrap;rounded=0;" vertex="1" parent="1">
          <mxGeometry x="250" y="290" width="40" height="20" as="geometry" />
        </mxCell>
        <mxCell id="dA_OjoRXD8D9DYmpGyxw-14" value="V2" style="text;html=1;strokeColor=none;fillColor=none;align=center;verticalAlign=middle;whiteSpace=wrap;rounded=0;" vertex="1" parent="1">
          <mxGeometry x="410" y="290" width="40" height="20" as="geometry" />
        </mxCell>
        <mxCell id="dA_OjoRXD8D9DYmpGyxw-15" value="" style="rounded=0;whiteSpace=wrap;html=1;dashed=1;" vertex="1" parent="1">
          <mxGeometry x="560" y="280" width="120" height="110" as="geometry" />
        </mxCell>
        <mxCell id="dA_OjoRXD8D9DYmpGyxw-16" value="规则10" style="rounded=1;whiteSpace=wrap;html=1;" vertex="1" parent="1">
          <mxGeometry x="590" y="320" width="60" height="40" as="geometry" />
        </mxCell>
        <mxCell id="dA_OjoRXD8D9DYmpGyxw-17" value="V10" style="text;html=1;strokeColor=none;fillColor=none;align=center;verticalAlign=middle;whiteSpace=wrap;rounded=0;" vertex="1" parent="1">
          <mxGeometry x="570" y="290" width="40" height="20" as="geometry" />
        </mxCell>
        <mxCell id="dA_OjoRXD8D9DYmpGyxw-19" value="&lt;h1 style=&quot;font-size: 14px&quot;&gt;&lt;font style=&quot;font-size: 14px&quot;&gt;场景三：正交&lt;/font&gt;&lt;/h1&gt;&lt;p&gt;&lt;font style=&quot;font-size: 11px&quot;&gt;2个版本，5规则&lt;/font&gt;&lt;/p&gt;" style="text;html=1;strokeColor=none;fillColor=none;spacing=5;spacingTop=-20;whiteSpace=wrap;overflow=hidden;rounded=0;" vertex="1" parent="1">
          <mxGeometry x="40" y="510" width="140" height="80" as="geometry" />
        </mxCell>
        <mxCell id="dA_OjoRXD8D9DYmpGyxw-20" value="" style="rounded=0;whiteSpace=wrap;html=1;dashed=1;" vertex="1" parent="1">
          <mxGeometry x="240" y="540" width="120" height="370" as="geometry" />
        </mxCell>
        <mxCell id="dA_OjoRXD8D9DYmpGyxw-21" value="规则1-1" style="rounded=1;whiteSpace=wrap;html=1;" vertex="1" parent="1">
          <mxGeometry x="270" y="580" width="60" height="40" as="geometry" />
        </mxCell>
        <mxCell id="dA_OjoRXD8D9DYmpGyxw-23" value="V1" style="text;html=1;strokeColor=none;fillColor=none;align=center;verticalAlign=middle;whiteSpace=wrap;rounded=0;" vertex="1" parent="1">
          <mxGeometry x="250" y="550" width="40" height="20" as="geometry" />
        </mxCell>
        <mxCell id="dA_OjoRXD8D9DYmpGyxw-28" value="规则1-2" style="rounded=1;whiteSpace=wrap;html=1;" vertex="1" parent="1">
          <mxGeometry x="270" y="650" width="60" height="40" as="geometry" />
        </mxCell>
        <mxCell id="dA_OjoRXD8D9DYmpGyxw-29" value="规则1-3" style="rounded=1;whiteSpace=wrap;html=1;" vertex="1" parent="1">
          <mxGeometry x="270" y="720" width="60" height="40" as="geometry" />
        </mxCell>
        <mxCell id="dA_OjoRXD8D9DYmpGyxw-30" value="规则1-4" style="rounded=1;whiteSpace=wrap;html=1;" vertex="1" parent="1">
          <mxGeometry x="270" y="790" width="60" height="40" as="geometry" />
        </mxCell>
        <mxCell id="dA_OjoRXD8D9DYmpGyxw-31" value="规则1-5" style="rounded=1;whiteSpace=wrap;html=1;" vertex="1" parent="1">
          <mxGeometry x="270" y="850" width="60" height="40" as="geometry" />
        </mxCell>
        <mxCell id="dA_OjoRXD8D9DYmpGyxw-32" value="" style="rounded=0;whiteSpace=wrap;html=1;dashed=1;" vertex="1" parent="1">
          <mxGeometry x="450" y="540" width="120" height="370" as="geometry" />
        </mxCell>
        <mxCell id="dA_OjoRXD8D9DYmpGyxw-33" value="规则2-1" style="rounded=1;whiteSpace=wrap;html=1;" vertex="1" parent="1">
          <mxGeometry x="480" y="580" width="60" height="40" as="geometry" />
        </mxCell>
        <mxCell id="dA_OjoRXD8D9DYmpGyxw-34" value="V2" style="text;html=1;strokeColor=none;fillColor=none;align=center;verticalAlign=middle;whiteSpace=wrap;rounded=0;" vertex="1" parent="1">
          <mxGeometry x="460" y="550" width="40" height="20" as="geometry" />
        </mxCell>
        <mxCell id="dA_OjoRXD8D9DYmpGyxw-35" value="规则2-2" style="rounded=1;whiteSpace=wrap;html=1;" vertex="1" parent="1">
          <mxGeometry x="480" y="650" width="60" height="40" as="geometry" />
        </mxCell>
        <mxCell id="dA_OjoRXD8D9DYmpGyxw-36" value="规则2-3" style="rounded=1;whiteSpace=wrap;html=1;" vertex="1" parent="1">
          <mxGeometry x="480" y="720" width="60" height="40" as="geometry" />
        </mxCell>
        <mxCell id="dA_OjoRXD8D9DYmpGyxw-37" value="规则2-4" style="rounded=1;whiteSpace=wrap;html=1;" vertex="1" parent="1">
          <mxGeometry x="480" y="790" width="60" height="40" as="geometry" />
        </mxCell>
        <mxCell id="dA_OjoRXD8D9DYmpGyxw-38" value="规则2-5" style="rounded=1;whiteSpace=wrap;html=1;" vertex="1" parent="1">
          <mxGeometry x="480" y="850" width="60" height="40" as="geometry" />
        </mxCell>
      </root>
    </mxGraphModel>
  </diagram>
</mxfile>
